<?xml version="1.0" encoding="UTF-8"?>
<svg id="Layer_1" data-name="Layer 1" xmlns="http://www.w3.org/2000/svg" viewBox="0 0 4112.81 908.83">
  <defs>
    <style>
      .cls-1 {
        fill: #353949;
      }
    </style>
  </defs>
  <path class="cls-1" d="m0,886.76V0h184.57v726.26h443.38v158.49c0,2.01-627.96,2.01-627.96,2.01ZM944.94,355.11c-44.14,0-78.24,12.04-102.32,38.12-24.08,24.08-40.12,58.18-46.14,102.32h294.92c-4.01-46.14-18.06-80.25-46.14-104.32-26.08-24.08-60.19-36.11-100.31-36.11h0Zm0-142.44c56.17,0,108.34,10.03,154.48,30.09s84.26,52.16,112.35,96.3c26.08,38.12,44.14,84.26,52.16,136.42,4.01,30.09,6.02,74.23,6.02,130.41h-477.49c2.01,66.21,26.08,112.35,68.21,138.43,26.08,16.05,58.18,24.08,94.29,24.08,38.12,0,70.22-10.03,94.29-30.09,14.04-10.03,26.08-26.08,36.11-44.14h174.54c-4.01,38.12-26.08,78.24-64.2,118.37-58.18,64.2-140.44,96.3-246.77,96.3-86.27,0-164.51-26.08-230.72-80.25s-100.31-140.44-100.31-262.82c0-114.36,30.09-200.62,90.28-260.81,62.19-60.19,140.44-92.29,236.74-92.29h0Zm601.88,501.56l140.44-483.51h184.57l-238.74,656.04h-180.56l-234.73-656.04h192.6l136.42,483.51Zm686.14-82.26v-64.2c-10.03,6.02-22.07,12.04-34.11,16.05-12.04,4.01-26.08,8.02-46.14,12.04l-38.12,8.02c-36.11,6.02-62.19,14.04-78.24,24.08-26.08,16.05-40.12,40.12-40.12,72.22,0,30.09,8.03,50.16,24.07,64.2,16.05,12.04,36.11,20.06,60.19,20.06,38.12,0,72.22-10.03,104.32-32.1,30.09-24.08,48.15-64.2,48.15-120.38h0Zm-162.51-136.43l58.18-8.02c32.1-4.01,54.17-10.03,68.21-16.05,24.07-10.03,36.11-26.08,36.11-48.15,0-26.08-10.03-46.14-28.09-56.17s-46.14-16.05-82.26-16.05c-40.12,0-70.22,10.03-86.27,30.09-12.04,14.04-20.06,34.11-24.07,60.19h-166.52c4.01-58.18,20.06-104.32,48.15-140.44,46.14-58.18,124.39-86.27,234.73-86.27,72.22,0,136.43,14.04,192.6,42.13,56.18,28.09,84.26,82.26,84.26,160.5v300.94l2.01,76.24c2.01,22.07,4.01,38.12,10.03,46.14,6.02,8.03,14.04,14.04,26.08,20.06v26.08h-186.58c-6.02-14.04-8.03-26.08-10.03-38.12-2.01-12.04-4.01-24.08-4.01-40.12-24.07,26.08-52.16,48.15-82.26,66.21-36.11,22.07-78.24,32.1-126.39,32.1-60.19,0-108.34-16.05-148.46-50.16-38.12-34.11-58.18-82.26-58.18-144.45,0-80.25,32.1-138.43,94.29-174.54,30.09-20.06,80.25-34.11,148.46-42.13h0Zm778.43-280.88c68.21,0,122.38,18.06,166.52,54.17s64.2,94.29,64.2,176.55v441.37h-176.55v-399.24c0-34.11-4.01-60.19-14.04-80.25-16.05-34.11-48.15-50.16-96.3-50.16-58.18,0-98.31,24.08-118.37,74.23-12.04,26.08-16.05,60.19-16.05,100.31v355.11h-170.53V232.73h166.52v96.3c22.07-34.11,42.13-58.18,62.19-72.23,34.11-28.09,78.24-42.13,132.41-42.13h0Zm347.08,144.45h-92.29v-122.38h92.29V54.17h170.53v182.57h106.33v122.38h-106.33v347.08c0,26.08,4.01,44.14,10.03,50.16s28.09,10.03,62.19,10.03h34.11v128.4l-80.25,4.01c-80.25,2.01-136.43-12.04-166.52-42.13-20.06-20.06-28.09-50.16-28.09-90.28v-407.27h-2.01Zm591.84-4.01c-44.14,0-78.24,12.04-102.32,38.12s-40.12,58.18-46.14,102.32h294.92c-4.01-46.14-18.06-80.25-46.14-104.32-26.08-24.08-60.19-36.11-100.31-36.11h0Zm0-142.44c56.18,0,108.34,10.03,154.48,30.09s84.26,52.16,112.35,96.3c26.08,38.12,44.14,84.26,52.16,136.42,4.01,30.09,6.02,74.23,6.02,130.41h-477.49c2.01,66.21,26.08,112.35,68.21,138.43,26.08,16.05,58.18,24.08,94.29,24.08,38.12,0,70.22-10.03,94.29-30.09,14.04-10.03,26.08-26.08,36.11-44.14h174.54c-4.01,38.12-26.08,78.24-64.2,118.37-58.18,64.2-140.44,96.3-246.77,96.3-88.27,0-164.51-26.08-230.72-80.25s-100.31-140.44-100.31-262.82c0-114.36,30.09-200.62,90.28-260.81,62.19-60.19,140.44-92.29,236.74-92.29h0Z"/>
</svg>