<?xml version="1.0" encoding="UTF-8"?>
<svg id="Layer_1" data-name="Layer 1" xmlns="http://www.w3.org/2000/svg" viewBox="0 0 2919.83 534.38">
  <defs>
    <style>
      .cls-1 {
        fill: #353949;
      }
    </style>
  </defs>
  <path class="cls-1" d="m2801.19,359.1c-10.69,7.48-19.24,9.62-32.06,9.62-25.65,0-38.48-16.03-38.48-40.61,0-26.72,13.89-34.2,22.44-38.48,13.89-7.48,40.61-7.48,48.09-7.48v76.95Zm118.63,7.48l-7.48-7.48c-4.27,2.14-6.41,5.34-16.03,5.34-23.51,0-23.51-23.51-23.51-39.54,0-41.68,2.14-58.78,2.14-74.81,0-3.21,1.07-40.61-4.27-56.64-5.34-14.96-17.1-53.44-92.98-53.44-71.61,0-91.91,44.89-95.12,54.51l11.76,8.55c10.69-16.03,24.58-29.92,54.51-29.92,18.17,0,39.54,5.34,49.16,30.99,3.21,10.69,3.21,29.92,3.21,47.02v11.76c-32.06,0-79.09-2.14-109.01,13.89-20.31,10.69-35.27,29.92-35.27,58.78,0,17.1,4.27,68.4,72.68,68.4,45.96,0,66.26-26.72,73.74-35.27,3.21,11.76,10.69,34.2,48.09,34.2,32.06,0,51.3-11.76,68.4-36.34m-283.22-37.41h-11.76c-1.07,19.24-6.41,29.92-16.03,37.41-11.76,8.55-29.93,9.62-52.37,9.62h-54.51l133.59-215.89v-14.96h-203.06s1.07,36.34-2.14,61.99h11.76c1.07-11.76,5.34-23.51,11.76-28.86,9.62-8.55,22.44-10.69,53.44-10.69h44.89l-131.46,214.82v18.17h213.75c0-1.07,0-45.96,2.14-71.61m-353.76,29.92c-10.69,7.48-19.24,9.62-32.06,9.62-25.65,0-38.48-16.03-38.48-40.61,0-26.72,13.89-34.2,22.44-38.48,13.89-7.48,40.61-7.48,48.09-7.48v76.95Zm119.7,7.48l-7.48-7.48c-4.27,2.14-6.41,5.34-16.03,5.34-23.51,0-23.51-23.51-23.51-39.54,0-41.68,2.14-58.78,2.14-74.81,0-3.21,1.07-40.61-4.27-56.64-5.34-14.96-17.1-53.44-92.98-53.44-71.61,0-91.91,44.89-95.12,54.51l11.76,8.55c10.69-16.03,24.58-29.92,54.51-29.92,18.17,0,39.54,5.34,49.16,30.99,3.21,10.69,3.21,29.92,3.21,47.02v11.76c-32.06,0-79.09-2.14-109.01,13.89-20.31,10.69-35.27,29.92-35.27,58.78,0,17.1,4.27,68.4,72.68,68.4,45.96,0,66.26-26.72,73.74-35.27,3.21,11.76,10.69,34.2,48.09,34.2,30.99,0,51.3-11.76,68.4-36.34m-269.32,34.2v-9.62c-14.96-1.07-23.51-7.48-27.79-13.89-5.34-8.55-7.48-20.31-7.48-54.51V104.74c0-41.68,1.07-82.29,2.14-101.53l-3.21-3.21c-10.69,3.21-23.51,5.34-35.27,7.48-35.27,5.34-68.4,6.41-73.74,6.41v10.69c5.34,1.07,21.38,1.07,28.86,11.76,5.34,8.55,6.41,21.38,6.41,55.58v214.82c0,47.03-1.07,63.06-9.62,72.67-8.55,9.62-19.24,11.76-26.72,11.76v9.62c21.38-1.07,53.44-2.14,72.68-2.14s52.37,1.07,73.74,2.14m-228.71-125.04c0,60.92-14.96,107.94-64.12,107.94-29.93,0-42.75-18.17-43.82-21.38v-179.55c7.48-6.41,25.65-11.76,38.48-11.76,53.44,1.07,69.47,47.02,69.47,104.74m81.23-10.69c0-90.84-55.57-125.04-111.15-125.04-29.93,0-57.71,8.55-78.02,30.99v-28.86l-3.21-2.14c-8.55,3.21-19.24,5.34-34.2,6.41-32.06,4.27-60.92,5.34-71.61,5.34v10.69c6.41,1.07,22.44,1.07,28.86,11.76,5.34,8.55,6.41,21.38,6.41,56.64v208.41c0,47.03-1.07,63.06-9.62,72.67-8.55,9.62-19.24,11.76-26.72,11.76v10.69c23.51-2.14,56.64-2.14,75.88-2.14s64.12,1.07,85.5,2.14v-10.69c-2.14,0-32.06,1.07-42.75-13.89-5.34-8.55-7.48-21.38-7.48-55.58v-55.58c21.38,5.34,44.89,6.41,51.3,6.41,50.23,0,91.91-21.38,115.43-58.78,12.82-22.44,21.37-49.16,21.37-81.22m-398.64,99.39c-2.14,1.07-19.24,14.96-49.16,14.96-43.82,0-47.02-30.99-47.02-44.89,0-16.03,5.34-32.06,25.65-41.68,11.76-5.34,32.06-7.48,69.47-9.62v81.22h1.07Zm81.23,12.83l-5.34-5.34c-3.21,3.21-7.48,4.28-11.76,4.28-22.44,0-22.44-19.24-22.44-35.27,0-18.17,2.14-64.12,2.14-101.53,0-26.72-1.07-49.16-10.69-65.19-11.76-17.1-30.99-29.93-67.33-29.93-52.37,0-74.81,33.13-80.16,51.3l7.48,4.27c1.07-1.07,16.03-30.99,54.51-30.99,23.51,0,42.75,8.55,50.23,30.99,3.21,10.69,3.21,29.92,3.21,45.96v24.58c-32.06,0-69.47,2.14-90.84,7.48-44.89,12.83-48.09,47.02-48.09,60.92,0,10.69,1.07,65.19,69.47,65.19,39.54,0,63.06-23.51,70.54-34.2,0,12.83,5.34,33.13,33.13,33.13,24.58,0,36.34-13.89,45.96-25.65m-232.99,23.51v-7.48c-18.17-2.14-27.79-9.62-30.99-13.89-5.34-8.55-6.41-20.31-6.41-54.51v-76.95c0-41.68,1.07-82.29,2.14-101.53l-2.14-2.14c-6.41,3.21-14.96,5.34-24.58,6.41-22.44,4.27-47.03,5.34-53.44,5.34v8.55c5.34,1.07,21.38,1.07,28.86,11.76,5.34,8.55,6.41,21.38,6.41,55.57v75.88c0,47.02-1.07,63.06-9.62,73.74-8.55,9.62-19.24,10.69-28.86,11.76v7.48c23.51-2.14,44.89-2.14,60.92-2.14,18.17,0,36.34,1.07,57.71,2.14m-34.2-336.66c0-16.03-11.76-25.65-27.79-25.65s-27.79,9.62-27.79,25.65c0,14.96,10.69,25.65,26.72,25.65,18.17,0,28.86-9.62,28.86-25.65m-103.67,104.74v-5.34c-13.89-11.76-42.75-19.24-74.81-19.24-86.57,0-127.18,66.26-127.18,137.87,0,60.92,32.06,121.84,111.15,121.84,55.57,0,80.16-26.72,86.57-34.2l-5.34-6.41c-10.69,5.34-25.65,13.89-54.51,13.89-87.64,0-94.05-78.02-94.05-114.36,0-29.92,6.41-99.39,72.68-99.39,43.82,0,56.64,29.93,59.85,34.2h5.34l20.31-28.86Zm-205.2,231.92v-7.48c-8.55-1.07-18.17-4.28-23.51-8.55-9.62-9.62-11.76-17.1-11.76-59.85v-76.95c0-14.96-1.07-36.34-3.21-45.96-7.48-35.27-33.13-57.71-81.22-57.71s-75.88,26.72-81.22,30.99v-29.93l-2.14-2.14c-6.41,3.21-13.89,5.34-24.58,6.41-22.44,4.27-43.82,5.34-50.23,5.34v8.55c6.41,1.07,22.44,1.07,29.93,11.76,5.34,8.55,6.41,21.38,6.41,55.58v75.88c0,47.02-1.07,63.06-9.62,72.68s-19.24,11.76-26.72,12.83v7.48c23.51-2.14,38.47-2.14,57.71-2.14s35.27,1.07,56.64,2.14v-7.48c-8.55-1.07-18.17-4.28-23.51-8.55-9.62-9.62-11.76-17.1-11.76-59.85v-141.08c11.76-6.41,29.93-12.82,56.64-12.82,43.82,0,59.85,24.58,63.06,54.51,2.14,20.31,2.14,41.68,2.14,60.92,0,14.96,0,36.34-1.07,45.96-1.07,22.44,0,40.61-11.76,52.37-5.34,5.34-13.89,8.55-24.58,10.69v7.48c23.51-2.14,38.47-2.14,57.71-2.14s35.27,0,56.64,1.07m-340.93-160.31h-115.43c0-19.24,3.21-78.02,58.78-78.02s56.64,50.23,56.64,71.61v6.41Zm48.09,17.1v-7.48c0-23.51-2.14-45.96-14.96-68.4-7.48-11.76-27.79-37.41-76.95-37.41-73.74,0-114.36,58.78-114.36,137.87,0,68.4,33.13,121.84,114.36,121.84,35.27,0,69.47-12.83,87.64-34.2l-4.27-6.41c-18.17,9.62-38.47,13.89-59.85,13.89-25.65,0-78.02-6.41-90.84-79.09-4.28-11.76-4.28-24.58-4.28-38.48v-2.14s163.52,0,163.52,0Zm-211.61,143.21v-7.48c-8.55-1.07-21.38-4.28-26.72-8.55-9.62-9.62-11.76-17.1-11.76-59.85V103.67c1.07-41.68,1.07-82.29,3.21-101.53l-2.14-1.07c-6.41,2.14-14.96,4.27-25.65,6.41-22.44,4.27-47.03,5.34-53.44,5.34v8.55c6.41,0,22.44,0,29.92,10.69,5.34,7.48,6.41,21.38,6.41,55.57v220.16c0,47.03-1.07,63.06-9.62,73.74-8.55,9.62-19.24,10.69-28.86,11.76v7.48c23.51-2.14,41.68-2.14,60.92-2.14,18.17,0,36.34,1.07,57.71,2.14m-208.41-36.34c-2.14,1.07-19.24,14.96-49.16,14.96-43.82,0-47.02-30.99-47.02-44.89,0-16.03,5.34-32.06,25.65-41.68,11.76-5.34,32.06-7.48,69.47-9.62l1.07,81.22h0Zm81.22,12.83l-5.34-5.34c-3.21,3.21-7.48,4.28-11.76,4.28-22.44,0-22.44-19.24-22.44-35.27,0-18.17,2.14-64.12,2.14-101.53,0-26.72-1.07-49.16-10.69-65.19-11.76-17.1-30.99-29.93-67.33-29.93-52.37,0-74.81,33.13-80.16,51.3l7.48,4.27c1.07-1.07,16.03-30.99,54.51-30.99,23.51,0,42.75,8.55,50.23,30.99,3.21,10.69,3.21,29.92,3.21,45.96v24.58c-32.06,0-69.47,2.14-90.84,7.48-44.89,12.83-48.09,47.02-48.09,60.92,0,10.69,1.07,65.19,69.47,65.19,39.54,0,63.06-23.51,70.54-34.2,0,12.83,5.34,33.13,33.13,33.13,23.51,0,36.34-13.89,45.96-25.65m-196.65-220.16v-7.48c-14.96,1.07-30.99,2.14-45.96,2.14s-29.93-2.14-44.89-2.14v7.48c5.34,0,17.1,2.14,22.44,7.48,3.21,3.21,5.34,6.41,5.34,11.76,0,7.48-3.21,16.03-8.55,30.99l-56.64,140.01s-4.27-16.03-16.03-49.16l-35.27-91.91c-6.41-14.96-8.55-24.58-8.55-30.99,0-5.34,2.14-8.55,5.34-11.76,7.48-6.41,19.24-7.48,22.44-7.48v-6.41c-14.96,1.07-36.34,2.14-51.3,2.14s-37.41-1.07-52.37-2.14v7.48c17.1,0,22.44,10.69,25.65,16.03,3.21,5.34,8.55,19.24,10.69,24.58l82.29,207.34,17.1-3.21,91.91-204.13c2.14-4.27,8.55-19.24,11.76-24.58-1.07-1.07,6.41-16.03,24.58-16.03"/>
</svg>